<?xml version="1.0" encoding="iso-8859-1"?>
<!-- Generator: Adobe Illustrator 19.0.0, SVG Export Plug-In . SVG Version: 6.00 Build 0)  -->
<svg version="1.1" id="Layer_1" xmlns="http://www.w3.org/2000/svg" xmlns:xlink="http://www.w3.org/1999/xlink" x="0px" y="0px"
	 viewBox="0 0 512 512" style="enable-background:new 0 0 512 512;" xml:space="preserve">
<g>
	<path style="fill:#B3B3B3;" d="M499.035,256c0,18.957-5.42,36.656-14.795,51.632l-134.37-134.37
		c14.976-9.362,32.675-14.782,51.645-14.782C455.377,158.48,499.035,202.138,499.035,256z"/>
	<path style="fill:#B3B3B3;" d="M304.009,254.509c0.519-34.27,18.697-64.261,45.862-81.247l134.37,134.37
		c-17.219,27.553-47.833,45.888-82.725,45.888c-53.862,0-97.52-43.671-97.52-97.52C303.996,255.507,303.996,255.002,304.009,254.509
		z"/>
	<path style="fill:#B3B3B3;" d="M207.98,253.523c0.013,0.817,0.026,1.647,0.026,2.477c0,18.957-5.42,36.656-14.795,51.632
		l-134.37-134.37c14.976-9.362,32.675-14.782,51.645-14.782c53.019,0,96.158,42.309,97.494,95.004
		C207.98,253.498,207.98,253.51,207.98,253.523z"/>
	<path style="fill:#B3B3B3;" d="M58.841,173.262l134.37,134.37c-17.219,27.553-47.833,45.888-82.725,45.888
		c-53.862,0-97.52-43.671-97.52-97.52C12.966,221.108,31.288,190.494,58.841,173.262z"/>
</g>
<path d="M110.486,366.486C49.564,366.486,0,316.922,0,256c0-38.34,19.426-73.38,51.965-93.731
	c17.533-10.962,37.77-16.755,58.521-16.755c29.016,0,56.428,11.161,77.186,31.43c20.72,20.233,32.536,47.297,33.269,76.21
	c0.001,0.084,0.003,0.17,0.004,0.254l0.001,0.083c0.013,0.829,0.026,1.669,0.026,2.508c0,20.75-5.8,40.983-16.771,58.512
	C183.865,347.052,148.829,366.486,110.486,366.486z M110.486,171.447c-15.885,0-31.366,4.429-44.771,12.811
	C40.805,199.835,25.933,226.656,25.933,256c0,46.623,37.93,84.553,84.553,84.553c29.343,0,56.158-14.876,71.728-39.792
	c8.392-13.407,12.825-28.881,12.825-44.761c0-0.704-0.012-1.408-0.023-2.102l-0.003-0.174c0-0.01,0-0.021,0-0.03
	C193.782,207.564,156.676,171.447,110.486,171.447z"/>
<path d="M304.033,268.966c-7.16,0-12.966-5.806-12.966-12.966c0-0.382-0.012-0.775-0.022-1.16
	c-0.572-19.006-15.981-33.941-35.079-33.941c-18.634,0-33.991,14.526-35.031,33.097c-0.001,0.051-0.004,0.101-0.006,0.149
	c-0.029,0.612-0.049,1.233-0.049,1.854c0,7.16-5.806,12.966-12.966,12.966s-12.966-5.806-12.966-12.966
	c0-0.98,0.027-1.963,0.073-2.93c0.003-0.087,0.005-0.174,0.01-0.254c1.673-32.439,28.44-57.848,60.937-57.848
	c33.207,0,60.002,25.982,61.001,59.151c0.018,0.661,0.031,1.278,0.031,1.881C316.999,263.16,311.194,268.966,304.033,268.966z"/>
<path d="M193.535,320.922c-3.319,0-6.636-1.267-9.168-3.798L49.673,182.43c-5.063-5.063-5.063-13.274,0-18.338
	c5.065-5.062,13.272-5.062,18.338,0l134.694,134.694c5.063,5.063,5.063,13.274,0,18.338
	C200.172,319.656,196.853,320.922,193.535,320.922z"/>
<path d="M92.515,291.41c-3.319,0-6.636-1.267-9.168-3.798l-3.293-3.293c-5.063-5.063-5.063-13.274,0-18.338
	c5.065-5.062,13.272-5.062,18.338,0l3.293,3.293c5.063,5.063,5.063,13.274,0,18.338C99.151,290.144,95.833,291.41,92.515,291.41z"/>
<path d="M65.938,264.834c-3.319,0-6.636-1.267-9.168-3.798l-40.77-40.77c-5.063-5.063-5.063-13.274,0-18.338
	c5.065-5.062,13.272-5.062,18.338,0l40.77,40.77c5.063,5.063,5.063,13.274,0,18.338C72.574,263.567,69.256,264.834,65.938,264.834z"
	/>
<path d="M401.514,366.486c-60.922,0-110.486-49.564-110.486-110.486c0-0.581,0.001-1.177,0.017-1.762
	c0.594-37.62,20.011-71.997,51.95-91.969c0-0.001,0.001-0.001,0.001-0.001c17.532-10.96,37.768-16.754,58.518-16.754
	C462.436,145.514,512,195.078,512,256c0,20.751-5.799,40.984-16.769,58.512C474.894,347.052,439.857,366.486,401.514,366.486z
	 M356.744,184.256c-24.467,15.3-39.335,41.635-39.77,70.449c-0.001,0.056-0.003,0.113-0.004,0.17
	c-0.01,0.372-0.009,0.753-0.009,1.125c0,46.623,37.93,84.553,84.553,84.553c29.344,0,56.16-14.876,71.73-39.792
	c8.391-13.406,12.824-28.88,12.824-44.761c0-46.623-37.93-84.553-84.553-84.553C385.632,171.447,370.15,175.877,356.744,184.256
	L356.744,184.256z"/>
<path d="M484.565,320.922c-3.319,0-6.636-1.267-9.169-3.798L340.701,182.43c-5.063-5.063-5.063-13.274,0-18.338
	c5.065-5.062,13.272-5.062,18.338,0l134.695,134.694c5.063,5.063,5.063,13.274,0,18.338
	C491.201,319.656,487.884,320.922,484.565,320.922z"/>
<path d="M383.544,291.41c-3.319,0-6.636-1.267-9.168-3.798l-67.347-67.346c-5.063-5.063-5.063-13.274,0-18.338
	c5.065-5.062,13.272-5.062,18.338,0l67.347,67.346c5.063,5.063,5.063,13.274,0,18.338C390.18,290.144,386.862,291.41,383.544,291.41
	z"/>
<g>
</g>
<g>
</g>
<g>
</g>
<g>
</g>
<g>
</g>
<g>
</g>
<g>
</g>
<g>
</g>
<g>
</g>
<g>
</g>
<g>
</g>
<g>
</g>
<g>
</g>
<g>
</g>
<g>
</g>
</svg>
