<?xml version="1.0" encoding="iso-8859-1"?>
<!-- Generator: Adobe Illustrator 19.0.0, SVG Export Plug-In . SVG Version: 6.00 Build 0)  -->
<svg version="1.1" id="Layer_1" xmlns="http://www.w3.org/2000/svg" xmlns:xlink="http://www.w3.org/1999/xlink" x="0px" y="0px"
	 viewBox="0 0 512.001 512.001" style="enable-background:new 0 0 512.001 512.001;" xml:space="preserve">
<g>
	<g>
		<g>
			<path d="M256.001,379.495c-39.727,0-77.232-19.34-100.327-51.735c-2.592-3.635-7.638-4.48-11.273-1.889
				c-3.635,2.591-4.481,7.638-1.889,11.273c26.122,36.641,68.547,58.517,113.489,58.517s87.367-21.875,113.488-58.517
				c2.592-3.635,1.746-8.681-1.889-11.273c-3.635-2.592-8.681-1.746-11.273,1.889C333.232,360.156,295.726,379.495,256.001,379.495z
				"/>
			<path d="M185.926,286.365c1.684,0,3.351-0.527,4.751-1.543c2.156-1.567,3.402-4.096,3.329-6.761l-1.299-47.237l28.816-37.452
				c1.625-2.112,2.105-4.891,1.281-7.426c-0.823-2.536-2.845-4.501-5.401-5.255l-45.326-13.362l-26.713-38.978
				c-1.507-2.198-4.001-3.513-6.667-3.513c-2.666,0-5.16,1.315-6.666,3.513l-26.714,38.978l-45.326,13.362
				c-2.557,0.753-4.578,2.719-5.401,5.255c-0.824,2.536-0.345,5.314,1.28,7.426l28.815,37.452l-1.299,47.236
				c-0.073,2.665,1.171,5.194,3.329,6.761c2.156,1.567,4.947,1.971,7.458,1.075l44.522-15.831l44.523,15.833
				C184.1,286.211,185.015,286.365,185.926,286.365z M177.523,266.717l-36.121-12.844c-0.876-0.311-1.792-0.468-2.708-0.468
				c-0.916,0-1.832,0.156-2.708,0.468l-36.118,12.843l1.053-38.322c0.051-1.858-0.54-3.677-1.674-5.15l-23.376-30.383l36.771-10.84
				c1.783-0.526,3.331-1.65,4.382-3.183l21.671-31.621l21.671,31.621c1.051,1.534,2.598,2.657,4.382,3.183l36.772,10.839
				l-23.376,30.384c-1.134,1.473-1.724,3.292-1.674,5.15L177.523,266.717z"/>
			<path d="M483.844,171.337c-2.737-3.777-6.913-6.648-12.058-8.164l-35.988-10.608c-8.066-2.377-19.312-10.548-24.067-17.486
				l-21.21-30.949c-4.295-6.269-10.571-9.864-17.216-9.864s-12.921,3.595-17.216,9.863l-21.21,30.949
				c-4.754,6.938-16.001,15.108-24.067,17.486l-35.988,10.608c-5.145,1.516-9.32,4.387-12.058,8.164h-13.535
				c-2.738-3.777-6.914-6.648-12.058-8.164l-35.988-10.608c-8.066-2.377-19.312-10.548-24.067-17.486l-21.21-30.949
				c-4.295-6.268-10.57-9.862-17.216-9.862c-6.646,0-12.921,3.595-17.215,9.862l-21.211,30.95c-4.753,6.937-16,15.107-24.067,17.485
				l-35.987,10.608c-5.145,1.516-9.32,4.387-12.058,8.164C12.631,171.342,0,183.975,0,199.502c0,15.53,12.634,28.163,28.164,28.163
				H53.84c4.49,7.058,8.017,18.647,7.807,26.281l-1.032,37.506c-0.175,6.351,1.865,12.043,5.744,16.029
				c3.571,3.67,8.501,5.692,13.883,5.692c2.694,0,5.463-0.499,8.23-1.483l35.349-12.571c3.774-1.342,9.195-2.112,14.875-2.112
				c4.953,0,9.708,0.586,13.348,1.626c-1.823-0.347-3.696-0.527-5.599-0.527c-5.54,0-10.956,1.563-15.666,4.519
				c-13.776,8.649-17.947,26.893-9.298,40.669c29.263,46.611,79.552,74.44,134.521,74.44c54.969,0,105.257-27.828,134.521-74.44
				c4.19-6.673,5.529-14.578,3.774-22.261c-1.757-7.681-6.399-14.218-13.072-18.408c-4.708-2.956-10.125-4.519-15.666-4.519
				c-1.902,0-3.774,0.18-5.596,0.527c3.639-1.04,8.393-1.625,13.344-1.625c5.679,0,11.1,0.769,14.875,2.112l35.35,12.571
				c2.766,0.984,5.536,1.483,8.23,1.483c5.382,0,10.311-2.022,13.882-5.692c3.878-3.985,5.917-9.677,5.744-16.029l-1.032-37.504
				c-0.209-7.635,3.318-19.224,7.807-26.282h25.676c15.53,0,28.164-12.634,28.164-28.163
				C512,183.975,499.37,171.342,483.844,171.337z M247.815,195.919c2.041-2.652,3.468-5.51,4.252-8.417h7.865
				c0.784,2.907,2.212,5.765,4.252,8.417l11.988,15.581h-40.346L247.815,195.919z M300.968,307.479
				c3.571,3.67,8.501,5.693,13.883,5.693h0.002c2.694,0,5.461-0.499,8.229-1.483l28.815-10.246
				c-4.564,2.377-8.495,5.943-11.343,10.48c-18.403,29.312-50.012,46.81-84.552,46.81c-34.541,0-66.151-17.5-84.553-46.811
				c-2.849-4.537-6.78-8.103-11.345-10.48l28.817,10.247c2.766,0.984,5.536,1.483,8.23,1.483c5.381,0,10.311-2.022,13.882-5.692
				c3.878-3.986,5.918-9.678,5.744-16.029l-1.031-37.505c-0.21-7.634,3.317-19.222,7.807-26.282h64.898
				c4.49,7.06,8.017,18.648,7.807,26.282l-1.032,37.505C295.051,297.802,297.091,303.493,300.968,307.479z M28.164,211.501
				c-6.617,0-11.999-5.383-11.999-11.998c0-5.672,3.958-10.425,9.254-11.671c0.802,2.793,2.193,5.536,4.156,8.089l11.988,15.58
				H28.164z M138.695,280.844c-7.561,0-14.766,1.082-20.29,3.047l-35.35,12.57c-1.023,0.363-1.97,0.549-2.815,0.549
				c-1.519,0-2.105-0.602-2.296-0.8c-0.796-0.819-1.223-2.39-1.17-4.312l1.032-37.506c0.332-12.072-5.177-29.024-12.54-38.593
				l-22.878-29.735c-1.333-1.732-1.879-3.397-1.498-4.569c0.381-1.171,1.801-2.198,3.897-2.816l35.986-10.607
				c11.585-3.414,26.005-13.892,32.831-23.852l21.211-30.949c1.235-1.802,2.65-2.836,3.882-2.836s2.647,1.033,3.883,2.836
				l21.21,30.949c6.827,9.962,21.248,20.438,32.83,23.852l35.988,10.608c2.096,0.617,3.516,1.644,3.897,2.816
				c0.381,1.171-0.165,2.837-1.498,4.569l-22.878,29.735c-7.363,9.57-12.872,26.523-12.54,38.593l1.031,37.504
				c0.053,1.921-0.374,3.494-1.171,4.312c-0.193,0.198-0.778,0.801-2.296,0.801c-0.845,0-1.792-0.184-2.815-0.549l-35.35-12.57
				C153.46,281.925,146.255,280.844,138.695,280.844z M365.557,314.271c2.495,0,4.94,0.707,7.069,2.044
				c6.228,3.91,8.112,12.157,4.203,18.384c-26.288,41.871-71.458,66.869-120.831,66.869s-94.543-24.998-120.831-66.869
				c-1.895-3.016-2.5-6.591-1.706-10.063c0.794-3.472,2.892-6.427,5.909-8.321c2.13-1.337,4.576-2.044,7.07-2.044
				c4.628,0,8.858,2.335,11.314,6.247c21.378,34.051,58.105,54.381,98.244,54.381c40.138,0,76.864-20.33,98.242-54.38
				C356.699,316.607,360.929,314.271,365.557,314.271z M446.735,215.798c-7.364,9.569-12.872,26.522-12.54,38.594l1.032,37.504
				c0.053,1.922-0.374,3.494-1.17,4.313c-0.193,0.198-0.778,0.8-2.296,0.8c-0.845,0-1.792-0.184-2.815-0.549l-35.351-12.571
				c-5.524-1.963-12.73-3.045-20.29-3.045s-14.766,1.082-20.29,3.046l-35.35,12.57c-1.023,0.363-1.97,0.549-2.813,0.549
				c-1.519-0.001-2.106-0.602-2.299-0.801c-0.796-0.819-1.223-2.39-1.17-4.312l1.032-37.505c0.332-12.071-5.177-29.023-12.54-38.593
				l-22.878-29.735c-1.332-1.732-1.878-3.398-1.498-4.569c0.38-1.171,1.801-2.198,3.897-2.816l35.987-10.607
				c11.583-3.414,26.004-13.891,32.831-23.852l21.21-30.949c1.235-1.802,2.65-2.836,3.882-2.836c1.232,0,2.647,1.033,3.882,2.836
				l21.21,30.949c6.827,9.962,21.248,20.438,32.83,23.852l35.988,10.608c2.096,0.617,3.516,1.643,3.897,2.816
				c0.381,1.171-0.165,2.837-1.498,4.569L446.735,215.798z M483.836,211.501h-13.399l11.989-15.581
				c1.963-2.553,3.354-5.295,4.155-8.088c5.297,1.246,9.255,5.999,9.255,11.671C495.836,206.119,490.453,211.501,483.836,211.501z"
				/>
			<path d="M452.011,180.69l-45.326-13.362l-26.713-38.978c-1.507-2.198-4.001-3.513-6.667-3.513s-5.16,1.315-6.666,3.513
				l-26.713,38.978l-45.326,13.362c-2.557,0.753-4.578,2.719-5.401,5.255c-0.824,2.536-0.345,5.314,1.281,7.426l28.816,37.452
				l-1.299,47.237c-0.073,2.665,1.171,5.194,3.329,6.761c1.4,1.017,3.067,1.543,4.751,1.543c0.911,0,1.827-0.154,2.707-0.468
				l44.523-15.833l44.522,15.831c2.511,0.893,5.302,0.49,7.458-1.075c2.157-1.567,3.402-4.096,3.329-6.761l-1.299-47.236
				l28.815-37.452c1.625-2.112,2.105-4.891,1.28-7.426C456.589,183.409,454.569,181.443,452.011,180.69z M412.753,223.244
				c-1.134,1.473-1.724,3.292-1.674,5.15l1.053,38.322l-36.12-12.844c-1.751-0.623-3.664-0.623-5.415,0l-36.121,12.844l1.054-38.323
				c0.051-1.858-0.54-3.677-1.674-5.15l-23.377-30.384l36.772-10.839c1.783-0.526,3.331-1.65,4.382-3.183l21.671-31.621
				l21.671,31.621c1.051,1.534,2.598,2.657,4.382,3.183l36.771,10.84L412.753,223.244z"/>
		</g>
	</g>
</g>
<g>
</g>
<g>
</g>
<g>
</g>
<g>
</g>
<g>
</g>
<g>
</g>
<g>
</g>
<g>
</g>
<g>
</g>
<g>
</g>
<g>
</g>
<g>
</g>
<g>
</g>
<g>
</g>
<g>
</g>
</svg>
