<?xml version="1.0" encoding="iso-8859-1"?>
<!-- Generator: Adobe Illustrator 17.1.0, SVG Export Plug-In . SVG Version: 6.00 Build 0)  -->
<!DOCTYPE svg PUBLIC "-//W3C//DTD SVG 1.1//EN" "http://www.w3.org/Graphics/SVG/1.1/DTD/svg11.dtd">
<svg version="1.1" id="Capa_1" xmlns="http://www.w3.org/2000/svg" xmlns:xlink="http://www.w3.org/1999/xlink" x="0px" y="0px"
	 viewBox="0 0 301.209 301.209" style="enable-background:new 0 0 301.209 301.209;" xml:space="preserve">
<path d="M93.364,210.856c-10.457,0-63.208-1.231-74.838-25.569C8.832,165,5.025,134.745,4.376,124.799
	c-0.136-2.083-0.551-3.103-0.755-3.489C1.403,119.971,0,117.55,0,114.891V98.318c0-3.313,2.173-6.233,5.347-7.184
	c0.645-0.193,2.604-0.781,10.991-0.781c4.355,0,9.782,0.159,16.13,0.474c11.054,0.548,18.066,2.297,25.49,4.148
	c7.373,1.839,14.997,3.741,28.103,4.762c14.443,1.126,32.325,1.98,44.782,2.499c13.111,0.546,26.411,0.546,39.522,0
	c12.458-0.519,30.342-1.373,44.782-2.499c13.105-1.021,20.729-2.922,28.104-4.762c7.424-1.852,14.437-3.6,25.489-4.148
	c6.348-0.315,11.774-0.474,16.13-0.474c8.39,0,10.35,0.588,10.994,0.781c3.172,0.952,5.345,3.872,5.345,7.184v16.573
	c0,2.66-1.403,5.08-3.621,6.419c-0.204,0.386-0.62,1.406-0.756,3.489c-0.649,9.946-4.456,40.201-14.15,60.488
	c-11.629,24.335-64.379,25.569-74.835,25.569c-3.927,0-7.579-0.138-10.563-0.398c-22.995-2.009-30.89-22.536-35.131-33.563
	c-0.926-2.407-1.735-4.656-2.519-6.832c-1.908-5.298-4.281-11.891-6.161-13.003c-1.277-0.755-2.251-0.833-2.437-0.841
	c-0.29,0.017-0.58,0.017-0.87,0.001c-0.19,0.008-1.161,0.088-2.432,0.839c-1.881,1.112-4.255,7.706-6.162,13.004
	c-0.783,2.175-1.593,4.425-2.519,6.832c-4.241,11.027-12.137,31.553-35.131,33.563C100.943,210.718,97.292,210.856,93.364,210.856z
	 M15,111.497c2.02,2.401,3.949,6.25,4.345,12.327c0.556,8.528,4.086,36.938,12.715,54.996c5.289,11.067,35.532,17.038,61.304,17.037
	c3.5,0,6.7-0.118,9.255-0.341c12.635-1.104,17.636-11.524,22.437-24.004c0.867-2.255,1.649-4.427,2.405-6.528
	c3.414-9.483,6.111-16.973,12.64-20.833c4.672-2.764,8.869-2.976,10.539-2.923c0.122-0.005,0.244-0.007,0.369-0.007
	c1.923,0,5.791,0.38,10.102,2.931c6.527,3.86,9.225,11.35,12.638,20.832c0.757,2.101,1.539,4.273,2.406,6.528
	c4.8,12.48,9.802,22.9,22.437,24.004c2.557,0.224,5.758,0.342,9.256,0.342c25.771,0,56.015-5.972,61.303-17.037
	c8.629-18.058,12.159-46.468,12.715-54.997c0.396-6.076,2.326-9.925,4.346-12.326v-6.137c-0.419-0.004-0.864-0.006-1.339-0.006
	c-4.108,0-9.285,0.153-15.388,0.456c-9.588,0.476-15.618,1.979-22.602,3.721c-7.6,1.896-16.214,4.044-30.567,5.163
	c-14.665,1.143-32.742,2.007-45.325,2.531c-13.524,0.563-27.245,0.563-40.77,0c-12.581-0.524-30.657-1.388-45.324-2.531
	c-14.354-1.119-22.967-3.267-30.566-5.163c-6.983-1.742-13.014-3.246-22.603-3.721c-6.103-0.302-11.279-0.456-15.388-0.456
	c-0.474,0-0.919,0.002-1.338,0.006V111.497z"/>
<g>
</g>
<g>
</g>
<g>
</g>
<g>
</g>
<g>
</g>
<g>
</g>
<g>
</g>
<g>
</g>
<g>
</g>
<g>
</g>
<g>
</g>
<g>
</g>
<g>
</g>
<g>
</g>
<g>
</g>
</svg>
