<?xml version="1.0" encoding="iso-8859-1"?>
<!-- Generator: Adobe Illustrator 19.0.0, SVG Export Plug-In . SVG Version: 6.00 Build 0)  -->
<svg version="1.1" id="Layer_1" xmlns="http://www.w3.org/2000/svg" xmlns:xlink="http://www.w3.org/1999/xlink" x="0px" y="0px"
	 viewBox="0 0 512 512" style="enable-background:new 0 0 512 512;" xml:space="preserve">
<g>
	<circle style="fill:#628C5F;" cx="146.02" cy="256" r="83.501"/>
	<circle style="fill:#628C5F;" cx="364.477" cy="256" r="83.501"/>
</g>
<path style="fill:#BFE436;" d="M302.642,245.034h-34.081c0-6.926-5.635-12.561-12.561-12.561c-6.925,0-12.561,5.635-12.561,12.561
	h-34.081c0-25.719,20.923-46.643,46.642-46.643S302.642,219.315,302.642,245.034z"/>
<g>
	<path style="fill:#A4D95E;" d="M256,198.392v34.081c6.925,0,12.561,5.635,12.561,12.561h34.081
		C302.642,219.315,281.719,198.392,256,198.392z"/>
	<rect x="443.948" y="227.862" style="fill:#A4D95E;" width="68.051" height="33.391"/>
</g>
<g>
	<rect y="227.862" style="fill:#BFE436;" width="68.051" height="33.391"/>
	<path style="fill:#BFE436;" d="M147.525,352.743c-53.345,0-96.744-43.399-96.744-96.744s43.399-96.743,96.744-96.743
		s96.744,43.399,96.744,96.743S200.87,352.743,147.525,352.743z M147.525,193.222c-34.616,0-62.778,28.162-62.778,62.778
		s28.162,62.778,62.778,62.778c34.617,0,62.778-28.162,62.778-62.778S182.141,193.222,147.525,193.222z"/>
	<rect x="130.827" y="176.529" style="fill:#BFE436;" width="33.391" height="158.954"/>
	<polygon style="fill:#BFE436;" points="195.71,322.636 147.525,283.872 99.339,322.636 78.409,296.618 147.525,241.015 
		216.639,296.618 	"/>
</g>
<g>
	<path style="fill:#A4D95E;" d="M364.475,352.743c-53.345,0-96.743-43.399-96.743-96.744s43.399-96.743,96.743-96.743
		s96.744,43.399,96.744,96.743S417.82,352.743,364.475,352.743z M364.475,193.222c-34.617,0-62.778,28.162-62.778,62.778
		s28.162,62.778,62.778,62.778s62.778-28.162,62.778-62.778S399.092,193.222,364.475,193.222z"/>
	<rect x="347.782" y="176.529" style="fill:#A4D95E;" width="33.391" height="158.954"/>
	<polygon style="fill:#A4D95E;" points="316.29,322.636 295.361,296.618 364.475,241.015 433.591,296.618 412.66,322.636 
		364.475,283.872 	"/>
</g>
<g>
</g>
<g>
</g>
<g>
</g>
<g>
</g>
<g>
</g>
<g>
</g>
<g>
</g>
<g>
</g>
<g>
</g>
<g>
</g>
<g>
</g>
<g>
</g>
<g>
</g>
<g>
</g>
<g>
</g>
</svg>
