<?xml version="1.0" encoding="iso-8859-1"?>
<!-- Generator: Adobe Illustrator 19.0.0, SVG Export Plug-In . SVG Version: 6.00 Build 0)  -->
<svg version="1.1" id="Layer_1" xmlns="http://www.w3.org/2000/svg" xmlns:xlink="http://www.w3.org/1999/xlink" x="0px" y="0px"
	 viewBox="0 0 512 512" style="enable-background:new 0 0 512 512;" xml:space="preserve">
<polygon style="fill:#B169BF;" points="119.182,84.977 8.017,290.205 42.221,290.205 119.182,136.284 179.04,110.631 179.04,84.977 
	"/>
<polygon style="fill:#844A8F;" points="392.818,84.977 503.983,290.423 469.779,290.205 392.818,136.284 332.96,110.631 
	332.96,84.977 "/>
<path style="fill:#B169BF;" d="M484.726,290.205c-7.595-29.506-34.378-51.307-66.254-51.307H93.528
	c-31.875,0-58.66,21.801-66.254,51.307H10.155v34.205h14.965v8.551c0,51.949,42.113,94.063,94.063,94.063
	c70.84,0,128.267-57.427,128.267-128.267h17.102c0,70.84,57.427,128.267,128.267,128.267c51.949,0,94.063-42.113,94.063-94.063
	v-8.551h14.965v-34.205H484.726z M119.182,401.37c-21.553,0-40.798-10.028-53.345-25.653h121.138
	C168.882,391.673,145.145,401.37,119.182,401.37z M208.021,350.063H52.937c-1.413-5.468-2.165-11.199-2.165-17.102v-17.102H220.37
	C218.301,328.131,214.046,339.671,208.021,350.063z M221.796,290.205H54.353c6.611-15.084,21.678-25.653,39.175-25.653h128.267
	V290.205z M290.205,264.551h128.267c17.497,0,32.564,10.569,39.175,25.653H290.205V264.551z M392.818,401.37
	c-25.963,0-49.7-9.697-67.792-25.653h121.138C433.616,391.341,414.372,401.37,392.818,401.37z M461.228,332.96
	c0,5.904-0.753,11.634-2.165,17.102H303.98c-6.025-10.392-10.28-21.932-12.348-34.205h169.596V332.96z"/>
<path d="M511.959,289.393c-0.105-1.057-0.433-2.107-0.944-3.038l-31.04-57.302c-2.11-3.894-6.972-5.341-10.867-3.23
	c-3.893,2.109-5.339,6.973-3.23,10.867l12.593,23.248c-6.823-8.635-15.431-15.697-25.21-20.693L399.989,132.7
	c-0.848-1.695-2.269-3.036-4.013-3.783l-54.999-23.572V92.994h47.067l63.398,117.042c2.11,3.893,6.971,5.34,10.867,3.23
	c3.893-2.109,5.339-6.973,3.23-10.867L399.868,81.159c-1.401-2.587-4.108-4.199-7.049-4.199H332.96
	c-4.428,0-8.017,3.588-8.017,8.017v25.653c0,3.207,1.911,6.106,4.859,7.369l57.159,24.497l44.775,89.551
	c-4.324-0.759-8.754-1.166-13.265-1.166h-231.95c-4.428,0-8.017,3.588-8.017,8.017s3.588,8.017,8.017,8.017h231.95
	c27.575,0,51.628,18.623,58.49,45.288c0.913,3.542,4.107,6.019,7.764,6.019h11.24v18.171h-9.086c-4.428,0-8.017,3.588-8.017,8.017
	v8.551c0,47.446-38.6,86.046-86.046,86.046c-66.306,0-120.251-53.945-120.251-120.251c0-4.428-3.588-8.017-8.017-8.017h-17.102
	c-4.428,0-8.017,3.588-8.017,8.017c0,66.306-53.945,120.251-120.251,120.251c-47.446,0-86.046-38.6-86.046-86.046v-8.551
	c0-4.428-3.588-8.017-8.017-8.017h-9.086v-18.171h11.242c3.658,0,6.852-2.476,7.764-6.019c6.861-26.665,30.913-45.288,58.489-45.288
	h60.927c4.428,0,8.017-3.588,8.017-8.017s-3.588-8.017-8.017-8.017H93.528c-4.51,0-8.941,0.407-13.265,1.166l44.776-89.551
	L182.198,118c2.948-1.263,4.859-4.162,4.859-7.369V84.977c0-4.428-3.588-8.017-8.017-8.017h-59.858
	c-2.943,0-5.648,1.612-7.049,4.199L0.985,286.356c-0.647,1.179-0.991,2.535-0.984,3.88v34.174c0,4.428,3.588,8.017,8.017,8.017
	h9.086v0.534c0,56.287,45.792,102.079,102.079,102.079c72.455,0,131.885-56.838,136.051-128.267h1.535
	c4.165,71.429,63.596,128.267,136.051,128.267c56.287,0,102.079-45.792,102.079-102.079v-0.534h9.086
	c4.428,0,8.017-3.588,8.017-8.017v-34.175C512.001,289.955,511.987,289.674,511.959,289.393z M123.956,92.994h47.067v12.351
	l-54.999,23.571c-1.743,0.747-3.165,2.088-4.013,3.783L58.738,239.245c-9.779,4.996-18.387,12.059-25.21,20.694L123.956,92.994z"/>
<path d="M418.472,256.535H290.205c-4.428,0-8.017,3.588-8.017,8.017v25.653c0,4.428,3.588,8.017,8.017,8.017h167.442
	c5.677,0,9.625-6.025,7.342-11.235C456.882,268.488,438.623,256.535,418.472,256.535z M298.221,282.188v-9.62h120.251
	c9.092,0,17.622,3.56,23.97,9.62H298.221z"/>
<path d="M229.812,264.551c0-4.428-3.588-8.017-8.017-8.017H93.528c-20.151,0-38.41,11.953-46.518,30.452
	c-2.283,5.21,1.665,11.235,7.343,11.235h167.442c4.428,0,8.017-3.588,8.017-8.017V264.551z M213.779,282.188H69.558
	c6.347-6.06,14.878-9.62,23.97-9.62h120.251V282.188z"/>
<path d="M466.824,352.068c1.605-6.216,2.42-12.645,2.42-19.108v-17.102c0-4.428-3.588-8.017-8.017-8.017H291.631
	c-4.883,0-8.718,4.531-7.906,9.35c2.195,13.023,6.676,25.435,13.318,36.893c1.434,2.472,4.076,3.996,6.935,3.996h155.084
	C462.719,358.079,465.91,355.607,466.824,352.068z M453.211,332.96c0,3.05-0.229,6.088-0.683,9.086H308.723
	c-3.008-5.815-5.388-11.89-7.119-18.171h151.607V332.96z"/>
<path d="M186.974,367.699H65.836c-6.584,0-10.386,7.885-6.251,13.036c14.624,18.209,36.345,28.651,59.596,28.651
	c26.914,0,52.873-9.822,73.095-27.658C197.702,376.943,194.192,367.699,186.974,367.699z M119.182,393.353
	c-11.772,0-23.05-3.393-32.676-9.62h74.179C147.856,390.017,133.68,393.353,119.182,393.353z"/>
<path d="M214.957,354.084c6.642-11.457,11.123-23.869,13.318-36.893c0.812-4.819-3.023-9.35-7.906-9.35H50.773
	c-4.428,0-8.017,3.588-8.017,8.017v17.102c0,6.463,0.814,12.892,2.42,19.108c0.914,3.539,4.107,6.011,7.762,6.011h155.084
	C210.88,358.079,213.522,356.556,214.957,354.084z M59.472,342.046c-0.454-2.997-0.683-6.036-0.683-9.086v-9.086h151.607
	c-1.731,6.281-4.111,12.356-7.119,18.171H59.472z"/>
<path d="M446.164,367.699H325.026c-7.218,0-10.727,9.244-5.303,14.029c20.222,17.836,46.182,27.658,73.095,27.658
	c23.252,0,44.973-10.443,59.596-28.651C456.55,375.586,452.748,367.699,446.164,367.699z M392.818,393.353
	c-14.497,0-28.674-3.336-41.503-9.62h74.179C415.869,389.96,404.59,393.353,392.818,393.353z"/>
<g>
</g>
<g>
</g>
<g>
</g>
<g>
</g>
<g>
</g>
<g>
</g>
<g>
</g>
<g>
</g>
<g>
</g>
<g>
</g>
<g>
</g>
<g>
</g>
<g>
</g>
<g>
</g>
<g>
</g>
</svg>
