<?xml version="1.0" encoding="iso-8859-1"?>
<!-- Generator: Adobe Illustrator 19.0.0, SVG Export Plug-In . SVG Version: 6.00 Build 0)  -->
<svg version="1.1" id="Layer_1" xmlns="http://www.w3.org/2000/svg" xmlns:xlink="http://www.w3.org/1999/xlink" x="0px" y="0px"
	 viewBox="0 0 512 512" style="enable-background:new 0 0 512 512;" xml:space="preserve">
<g>
	<g>
		<path d="M511.96,289.393c-0.105-1.057-0.433-2.107-0.944-3.038l-31.04-57.302c-2.11-3.894-6.972-5.341-10.867-3.23
			c-3.893,2.109-5.339,6.973-3.23,10.867l12.593,23.248c-6.823-8.635-15.431-15.697-25.21-20.693L399.989,132.7
			c-0.848-1.695-2.269-3.036-4.013-3.783l-54.999-23.572V92.994h47.067l63.398,117.042c2.11,3.893,6.971,5.34,10.867,3.23
			c3.893-2.109,5.339-6.973,3.23-10.867L399.868,81.159c-1.401-2.587-4.108-4.199-7.049-4.199H332.96
			c-4.428,0-8.017,3.588-8.017,8.017v25.653c0,3.207,1.911,6.106,4.859,7.369l57.159,24.497l44.775,89.551
			c-4.324-0.759-8.754-1.166-13.265-1.166h-231.95c-4.428,0-8.017,3.588-8.017,8.017s3.588,8.017,8.017,8.017h231.95
			c27.575,0,51.628,18.623,58.49,45.288c0.913,3.542,4.107,6.019,7.764,6.019h11.24v18.171h-9.086c-4.428,0-8.017,3.588-8.017,8.017
			v8.551c0,47.446-38.6,86.046-86.046,86.046c-66.306,0-120.25-53.945-120.25-120.251c0-4.428-3.588-8.017-8.017-8.017h-17.102
			c-4.428,0-8.017,3.588-8.017,8.017c0,66.306-53.945,120.251-120.25,120.251c-47.446,0-86.046-38.6-86.046-86.046v-8.551
			c0-4.428-3.588-8.017-8.017-8.017h-9.086v-18.171h11.242c3.658,0,6.852-2.476,7.764-6.019
			c6.861-26.665,30.914-45.288,58.489-45.288h60.927c4.428,0,8.017-3.588,8.017-8.017s-3.588-8.017-8.017-8.017H93.528
			c-4.51,0-8.941,0.407-13.265,1.166l44.776-89.551L182.198,118c2.948-1.263,4.859-4.162,4.859-7.369V84.977
			c0-4.428-3.588-8.017-8.017-8.017h-59.858c-2.943,0-5.648,1.612-7.049,4.199L0.985,286.356c-0.647,1.179-0.991,2.535-0.984,3.88
			v34.174c0,4.428,3.588,8.017,8.017,8.017h9.086v0.534c0,56.287,45.792,102.079,102.079,102.079
			c72.455,0,131.885-56.838,136.051-128.267h1.535c4.166,71.429,63.596,128.267,136.051,128.267
			c56.287,0,102.079-45.792,102.079-102.079v-0.534h9.086c4.428,0,8.017-3.588,8.017-8.017v-34.175
			C512.001,289.955,511.987,289.674,511.96,289.393z M123.956,92.994h47.067v12.351l-54.999,23.571
			c-1.743,0.747-3.165,2.088-4.013,3.783L58.738,239.245c-9.779,4.996-18.387,12.059-25.21,20.694L123.956,92.994z"/>
	</g>
</g>
<g>
	<g>
		<path d="M464.989,286.986c-8.108-18.498-26.366-30.452-46.517-30.452H290.205c-4.428,0-8.017,3.588-8.017,8.017v25.653
			c0,4.428,3.588,8.017,8.017,8.017h167.442C463.324,298.221,467.272,292.196,464.989,286.986z M298.221,282.188v-9.62h120.25
			c9.092,0,17.622,3.56,23.97,9.62H298.221z"/>
	</g>
</g>
<g>
	<g>
		<path d="M221.796,256.534H93.528c-20.151,0-38.41,11.953-46.518,30.452c-2.283,5.21,1.665,11.235,7.343,11.235h167.442
			c4.428,0,8.017-3.588,8.017-8.017v-25.653C229.812,260.123,226.224,256.534,221.796,256.534z M213.779,282.188H69.558
			c6.347-6.06,14.878-9.62,23.97-9.62h120.25V282.188z"/>
	</g>
</g>
<g>
	<g>
		<path d="M461.228,307.841H291.631c-4.883,0-8.718,4.531-7.906,9.35c2.195,13.023,6.676,25.435,13.318,36.893
			c1.434,2.472,4.076,3.995,6.935,3.995h155.084c3.657,0,6.848-2.472,7.762-6.011c1.606-6.216,2.42-12.645,2.42-19.108v-17.102
			C469.244,311.43,465.656,307.841,461.228,307.841z M453.211,332.96c0,3.05-0.229,6.088-0.683,9.086H308.723
			c-3.008-5.815-5.388-11.89-7.119-18.171h151.607V332.96z"/>
	</g>
</g>
<g>
	<g>
		<path d="M186.974,367.699H65.836c-6.584,0-10.386,7.885-6.251,13.036c14.624,18.209,36.345,28.651,59.596,28.651
			c26.914,0,52.873-9.822,73.095-27.658C197.702,376.943,194.192,367.699,186.974,367.699z M119.182,393.353
			c-11.772,0-23.05-3.393-32.676-9.62h74.179C147.856,390.017,133.68,393.353,119.182,393.353z"/>
	</g>
</g>
<g>
	<g>
		<path d="M220.37,307.841H50.773c-4.428,0-8.017,3.588-8.017,8.017v17.102c0,6.463,0.815,12.892,2.42,19.108
			c0.914,3.539,4.107,6.011,7.762,6.011h155.084c2.858,0,5.5-1.523,6.935-3.996c6.642-11.457,11.123-23.869,13.318-36.893
			C229.087,312.372,225.252,307.841,220.37,307.841z M203.277,342.046H59.472c-0.454-2.997-0.683-6.036-0.683-9.086v-9.086h151.607
			C208.665,330.156,206.285,336.231,203.277,342.046z"/>
	</g>
</g>
<g>
	<g>
		<path d="M446.164,367.699H325.026c-7.218,0-10.727,9.244-5.303,14.029c20.222,17.836,46.182,27.658,73.095,27.658
			c23.252,0,44.973-10.443,59.596-28.651C456.55,375.586,452.748,367.699,446.164,367.699z M392.818,393.353
			c-14.497,0-28.674-3.336-41.503-9.62h74.179C415.869,389.96,404.59,393.353,392.818,393.353z"/>
	</g>
</g>
<g>
</g>
<g>
</g>
<g>
</g>
<g>
</g>
<g>
</g>
<g>
</g>
<g>
</g>
<g>
</g>
<g>
</g>
<g>
</g>
<g>
</g>
<g>
</g>
<g>
</g>
<g>
</g>
<g>
</g>
</svg>
