<?xml version="1.0" encoding="iso-8859-1"?>
<!-- Generator: Adobe Illustrator 19.0.0, SVG Export Plug-In . SVG Version: 6.00 Build 0)  -->
<svg version="1.1" id="Layer_1" xmlns="http://www.w3.org/2000/svg" xmlns:xlink="http://www.w3.org/1999/xlink" x="0px" y="0px"
	 viewBox="0 0 512 512" style="enable-background:new 0 0 512 512;" xml:space="preserve">
<g>
	<g>
		<path d="M456.424,227.867c-10.474-34.16-39.481-60.294-75.253-66.582v93.163l64.975,52.273
			c8.312-13.335,13.44-28.846,14.342-45.462H512v-33.391H456.424z"/>
	</g>
</g>
<g>
	<g>
		<path d="M88.172,331.62c12.197,9.593,26.761,16.302,42.657,19.095v-53.413L88.172,331.62z"/>
	</g>
</g>
<g>
	<g>
		<path d="M164.221,297.303v53.413c15.895-2.794,30.461-9.502,42.656-19.095L164.221,297.303z"/>
	</g>
</g>
<g>
	<g>
		<path d="M55.576,227.867H0v33.391h51.513c0.902,16.617,6.029,32.126,14.34,45.462l64.975-52.273v-93.163
			C95.056,167.572,66.05,193.706,55.576,227.867z"/>
	</g>
</g>
<g>
	<g>
		<path d="M305.123,331.62c12.197,9.593,26.761,16.302,42.656,19.095v-53.413L305.123,331.62z"/>
	</g>
</g>
<g>
	<g>
		<path d="M281.827,206.889c-7.353-5.057-16.248-8.025-25.827-8.025s-18.474,2.969-25.827,8.025
			c-14.07-23.586-37.938-40.681-65.952-45.605v93.163l64.975,52.273c9.184-14.734,14.499-32.117,14.499-50.72
			c0-3.872-0.253-7.685-0.7-11.438h0.7c0-6.786,5.521-12.307,12.306-12.307s12.306,5.521,12.306,12.307h0.7
			c-0.447,3.754-0.7,7.566-0.7,11.438c0,18.603,5.315,35.986,14.499,50.72l64.975-52.273v-93.163
			C319.766,166.209,295.897,183.303,281.827,206.889z"/>
	</g>
</g>
<g>
	<g>
		<path d="M381.171,297.303v53.413c15.895-2.794,30.461-9.503,42.656-19.095L381.171,297.303z"/>
	</g>
</g>
<g>
</g>
<g>
</g>
<g>
</g>
<g>
</g>
<g>
</g>
<g>
</g>
<g>
</g>
<g>
</g>
<g>
</g>
<g>
</g>
<g>
</g>
<g>
</g>
<g>
</g>
<g>
</g>
<g>
</g>
</svg>
