<?xml version="1.0" encoding="iso-8859-1"?>
<!-- Generator: Adobe Illustrator 17.1.0, SVG Export Plug-In . SVG Version: 6.00 Build 0)  -->
<!DOCTYPE svg PUBLIC "-//W3C//DTD SVG 1.1//EN" "http://www.w3.org/Graphics/SVG/1.1/DTD/svg11.dtd">
<svg version="1.1" id="Capa_1" xmlns="http://www.w3.org/2000/svg" xmlns:xlink="http://www.w3.org/1999/xlink" x="0px" y="0px"
	 viewBox="0 0 302.805 302.805" style="enable-background:new 0 0 302.805 302.805;" xml:space="preserve">
<path d="M173.691,208.759c-2.418,0-4.735-1.172-6.158-3.219l-16.131-23.206l-16.131,23.206c-1.779,2.561-4.958,3.755-7.983,2.993
	l-99.075-24.857c-9.04-2.268-15.413-10.232-15.69-19.496H7.5c-4.143,0-7.5-3.357-7.5-7.5v-33.629c0-4.143,3.357-7.5,7.5-7.5h5.295
	c1.833-12.157,12.351-21.507,25.011-21.507h100.302c1.827,0,3.592,0.667,4.962,1.876l8.333,7.353l8.333-7.353
	c1.37-1.209,3.135-1.876,4.962-1.876h100.302c12.66,0,23.178,9.35,25.011,21.507h5.295c4.143,0,7.5,3.357,7.5,7.5v33.629
	c0,4.143-3.357,7.5-7.5,7.5h-5.022c-0.277,9.264-6.65,17.229-15.69,19.496l-99.075,24.857
	C174.91,208.686,174.297,208.759,173.691,208.759z M27.513,156.68v6.87c0,2.641,1.789,4.935,4.351,5.577l94.049,23.597
	l16.645-23.944c2.011-2.895,5.318-4.624,8.846-4.624s6.835,1.729,8.847,4.626l16.644,23.942l94.049-23.597
	c2.562-0.643,4.351-2.937,4.351-5.577v-44.214c0-5.675-4.617-10.292-10.293-10.292h-97.466l-11.169,9.854
	c-2.834,2.502-7.09,2.502-9.924,0l-11.169-9.854H37.806c-5.676,0-10.293,4.617-10.293,10.292V156.68z"/>
<g>
</g>
<g>
</g>
<g>
</g>
<g>
</g>
<g>
</g>
<g>
</g>
<g>
</g>
<g>
</g>
<g>
</g>
<g>
</g>
<g>
</g>
<g>
</g>
<g>
</g>
<g>
</g>
<g>
</g>
</svg>
