<?xml version="1.0" encoding="iso-8859-1"?>
<!-- Generator: Adobe Illustrator 17.1.0, SVG Export Plug-In . SVG Version: 6.00 Build 0)  -->
<!DOCTYPE svg PUBLIC "-//W3C//DTD SVG 1.1//EN" "http://www.w3.org/Graphics/SVG/1.1/DTD/svg11.dtd">
<svg version="1.1" id="Capa_1" xmlns="http://www.w3.org/2000/svg" xmlns:xlink="http://www.w3.org/1999/xlink" x="0px" y="0px"
	 viewBox="0 0 312.054 312.054" style="enable-background:new 0 0 312.054 312.054;" xml:space="preserve">
<path d="M223.466,222.063c-0.003,0-0.002,0-0.005,0c-10.021,0-19.309-1.598-26.86-4.62c-19.472-7.792-35.166-23.437-37.316-37.198
	c-0.021-0.134-0.076-0.585-0.128-1.274c-0.122-1.598-1.464-2.849-3.058-2.849h-0.2c-1.593,0-2.937,1.251-3.058,2.849
	c-0.055,0.716-0.113,1.185-0.134,1.312c-2.147,13.738-17.817,29.383-37.255,37.161c-7.552,3.022-16.84,4.62-26.86,4.62
	c-21.51,0-41.253-7.146-52.813-19.117C19.808,186.407,6.11,154.022,2.094,132.268c-2.393-12.963-4.136-26.333,2.958-34.856
	c4.099-4.924,10.444-7.421,18.859-7.421c1.333,0,2.749,0.062,4.209,0.184c24.164,2.014,67.655,23.853,91.02,35.585
	c7.125,3.577,13.387,7.081,18.609,10.412c5.401,3.443,11.561,5.264,17.813,5.264h0.93c6.251,0,12.412-1.82,17.814-5.265
	c5.221-3.33,11.482-6.834,18.608-10.411c23.364-11.732,66.855-33.571,91.019-35.585c1.46-0.122,2.876-0.184,4.209-0.184
	c8.414,0,14.759,2.497,18.857,7.421c7.096,8.525,5.353,21.895,2.96,34.856c-4.017,21.755-17.714,54.14-33.686,70.678
	C264.715,214.916,244.972,222.063,223.466,222.063z M174.137,178.118c1.118,6.224,10.689,18.456,28.038,25.399
	c5.713,2.286,13.273,3.546,21.288,3.546c0.001,0,0.002,0,0.003,0c17.259,0,33.359-5.569,42.019-14.537
	c13.82-14.312,26.19-43.834,29.725-62.98c0.347-1.881,0.851-4.61,1.246-7.55c-2.061,1.461-4.576,2.32-7.288,2.32
	c-0.789,0-1.561-0.072-2.31-0.212c0.572,1.597,0.885,3.317,0.885,5.108c0,8.363-6.804,15.167-15.167,15.167
	s-15.167-6.804-15.167-15.167s6.804-15.168,15.167-15.168c1.5,0,2.95,0.219,4.319,0.626c-0.233-0.957-0.356-1.956-0.356-2.983
	c0-1.918,0.43-3.737,1.198-5.367c-22.762,5.062-59.44,23.479-78.091,32.844c-6.67,3.35-12.482,6.598-17.274,9.654
	c-7.817,4.983-16.765,7.617-25.879,7.617h-0.93c-9.114,0-18.062-2.634-25.877-7.616c-4.794-3.058-10.606-6.306-17.275-9.655
	c-18.651-9.365-55.33-27.782-78.092-32.844c0.769,1.63,1.198,3.449,1.198,5.367c0,1.027-0.124,2.027-0.356,2.984
	c1.37-0.408,2.82-0.627,4.32-0.627c8.363,0,15.167,6.805,15.167,15.168s-6.804,15.167-15.167,15.167s-15.167-6.804-15.167-15.167
	c0-1.791,0.313-3.512,0.885-5.108c-0.749,0.14-1.521,0.212-2.31,0.212c-2.712,0-5.228-0.859-7.289-2.321
	c0.395,2.94,0.899,5.67,1.246,7.551c3.535,19.146,15.904,48.669,29.725,62.98c8.659,8.967,24.762,14.537,42.023,14.537
	c8.013,0,15.573-1.259,21.287-3.546c17.302-6.924,26.856-19.157,27.983-25.402l0.022-0.281c0.712-9.371,8.625-16.712,18.015-16.712
	h0.2c9.389,0,17.302,7.341,18.015,16.712L174.137,178.118z M272.575,129.044c-0.092,0-0.167,0.075-0.167,0.168
	c0,0.184,0.334,0.184,0.334,0C272.742,129.12,272.667,129.044,272.575,129.044z M39.479,129.044c-0.092,0-0.167,0.075-0.167,0.168
	c0,0.184,0.334,0.184,0.334,0C39.646,129.12,39.572,129.044,39.479,129.044z M289.167,109.316c-1.308,0-2.372,1.063-2.372,2.371
	s1.064,2.372,2.372,2.372s2.371-1.064,2.371-2.372S290.475,109.316,289.167,109.316z M22.887,109.316
	c-1.308,0-2.372,1.063-2.372,2.371s1.064,2.372,2.372,2.372s2.371-1.064,2.371-2.372S24.195,109.316,22.887,109.316z"/>
<g>
</g>
<g>
</g>
<g>
</g>
<g>
</g>
<g>
</g>
<g>
</g>
<g>
</g>
<g>
</g>
<g>
</g>
<g>
</g>
<g>
</g>
<g>
</g>
<g>
</g>
<g>
</g>
<g>
</g>
</svg>
